<svg width="168" height="16" viewBox="0 0 168 16" fill="none" xmlns="http://www.w3.org/2000/svg">
<path d="M0 15.0002V1.00023H2.98049L8.44139 10.0102V1.00023H11.2018V15.0002H8.22135L2.76045 5.99024V15.0002H0Z" fill="white"/>
<path d="M13.896 15.0002V1.00023H16.6565V15.0002H13.896Z" fill="white"/>
<path d="M29.9704 15.0002H26.3698L22.6392 9.76023L22.1191 10.3802V15.0002H19.3586V1.00023H22.1191V6.09024L26.3798 1.00023H29.9804L24.4395 7.60024L29.9704 15.0002Z" fill="white"/>
<path d="M37.2092 15.2602C36.2624 15.2602 35.3723 15.0736 34.5388 14.7002C33.7053 14.3202 32.9719 13.7969 32.3384 13.1302C31.705 12.4636 31.2082 11.6936 30.8482 10.8202C30.4881 9.94024 30.3081 9.00024 30.3081 8.00024C30.3081 7.00024 30.4881 6.06357 30.8482 5.19024C31.2082 4.31024 31.705 3.5369 32.3384 2.87023C32.9719 2.20357 33.7053 1.68357 34.5388 1.31023C35.3723 0.930235 36.2624 0.740234 37.2092 0.740234C38.1627 0.740234 39.0562 0.930235 39.8897 1.31023C40.7231 1.68357 41.4566 2.20357 42.09 2.87023C42.7235 3.5369 43.2169 4.31024 43.5703 5.19024C43.9303 6.06357 44.1104 7.00024 44.1104 8.00024C44.1104 9.00024 43.9303 9.94024 43.5703 10.8202C43.2169 11.6936 42.7235 12.4636 42.09 13.1302C41.4566 13.7969 40.7231 14.3202 39.8897 14.7002C39.0562 15.0736 38.1627 15.2602 37.2092 15.2602ZM37.2092 12.5002C37.776 12.5002 38.3094 12.3836 38.8095 12.1502C39.3096 11.9102 39.7497 11.5836 40.1297 11.1702C40.5098 10.7569 40.8065 10.2802 41.0199 9.74024C41.2399 9.20024 41.3499 8.62024 41.3499 8.00024C41.3499 7.38024 41.2399 6.80024 41.0199 6.26024C40.8065 5.71357 40.5098 5.2369 40.1297 4.83023C39.7497 4.4169 39.3096 4.09357 38.8095 3.86023C38.3094 3.62023 37.776 3.50023 37.2092 3.50023C36.6425 3.50023 36.1091 3.62023 35.609 3.86023C35.1089 4.09357 34.6688 4.4169 34.2888 4.83023C33.9087 5.24357 33.6086 5.72024 33.3886 6.26024C33.1752 6.80024 33.0686 7.38024 33.0686 8.00024C33.0686 8.62024 33.1752 9.20357 33.3886 9.75024C33.6086 10.2902 33.9087 10.7669 34.2888 11.1802C34.6688 11.5869 35.1089 11.9102 35.609 12.1502C36.1091 12.3836 36.6425 12.5002 37.2092 12.5002Z" fill="white"/>
<path d="M45.8669 15.0002V1.00023H48.6274V12.2402H54.2683V15.0002H45.8669Z" fill="white"/>
<path d="M60.6665 1.00023H63.807L68.8879 15.0002H65.9574L65.1172 12.6802H59.3563L58.5162 15.0002H55.5857L60.6665 1.00023ZM60.3665 9.92024H64.1071L62.2268 4.79024L60.3665 9.92024Z" fill="white"/>
<path d="M70.8194 15.0002V1.00023H73.5799V15.0002H70.8194Z" fill="white"/>
<path d="M91.6793 1.00023V2.08024H86.7184V15.0002H85.6383V2.08024H80.6875V1.00023H91.6793Z" fill="white"/>
<path d="M102.269 1.00023H103.539L98.8481 8.65024V15.0002H97.7679V8.65024L93.0872 1.00023H94.3574L98.308 7.47024L102.269 1.00023Z" fill="white"/>
<path d="M105.681 15.0002V1.00023H110.242C110.982 1.00023 111.652 1.18023 112.252 1.54023C112.853 1.89357 113.326 2.3769 113.673 2.99023C114.026 3.60357 114.203 4.29023 114.203 5.05023C114.203 5.7569 114.053 6.39357 113.753 6.96024C113.459 7.5269 113.059 7.99357 112.553 8.36024C112.046 8.72024 111.479 8.9469 110.852 9.04024L114.293 15.0002H113.043L109.622 9.11024H106.762V15.0002H105.681ZM106.762 8.03024H110.172C110.712 8.03024 111.206 7.90024 111.652 7.64023C112.099 7.37357 112.456 7.01357 112.723 6.56024C112.989 6.1069 113.123 5.59023 113.123 5.01023C113.123 4.4369 112.989 3.92357 112.723 3.47024C112.456 3.01024 112.099 2.65024 111.652 2.39024C111.206 2.12357 110.712 1.99023 110.172 1.99023H106.762V8.03024Z" fill="white"/>
<path d="M121.097 1.00023H122.517L127.618 15.0002H126.467L125.317 11.8402H118.306L117.156 15.0002H116.006L121.097 1.00023ZM118.696 10.7602H124.917L121.807 2.23023L118.696 10.7602Z" fill="white"/>
<path d="M129.533 15.0002V1.00023H130.713L138.554 13.0502V1.00023H139.635V15.0002H138.474L130.613 2.95024V15.0002H129.533Z" fill="white"/>
<path d="M148.536 15.2602C147.589 15.2602 146.699 15.0736 145.866 14.7002C145.032 14.3202 144.299 13.7969 143.665 13.1302C143.032 12.4636 142.535 11.6936 142.175 10.8202C141.815 9.94024 141.635 9.00024 141.635 8.00024C141.635 7.00024 141.815 6.06357 142.175 5.19024C142.535 4.31024 143.032 3.5369 143.665 2.87023C144.299 2.20357 145.032 1.68357 145.866 1.31023C146.699 0.930235 147.589 0.740234 148.536 0.740234C149.49 0.740234 150.383 0.930235 151.217 1.31023C152.05 1.68357 152.783 2.20357 153.417 2.87023C154.05 3.5369 154.544 4.31024 154.897 5.19024C155.257 6.06357 155.437 7.00024 155.437 8.00024C155.437 9.00024 155.257 9.94024 154.897 10.8202C154.544 11.6936 154.05 12.4636 153.417 13.1302C152.783 13.7969 152.05 14.3202 151.217 14.7002C150.383 15.0736 149.49 15.2602 148.536 15.2602ZM148.536 14.1802C149.35 14.1802 150.106 14.0169 150.806 13.6902C151.513 13.3636 152.13 12.9169 152.657 12.3502C153.19 11.7769 153.607 11.1169 153.907 10.3702C154.207 9.62357 154.357 8.83357 154.357 8.00024C154.357 7.15357 154.204 6.3569 153.897 5.61023C153.597 4.86357 153.18 4.2069 152.647 3.64024C152.113 3.07357 151.497 2.63023 150.796 2.31024C150.096 1.98357 149.343 1.82023 148.536 1.82023C147.723 1.82023 146.963 1.98357 146.256 2.31024C145.556 2.6369 144.939 3.0869 144.405 3.66023C143.879 4.2269 143.465 4.88357 143.165 5.63024C142.865 6.3769 142.715 7.1669 142.715 8.00024C142.715 8.8469 142.865 9.64357 143.165 10.3902C143.472 11.1369 143.892 11.7969 144.425 12.3702C144.959 12.9369 145.576 13.3802 146.276 13.7002C146.983 14.0202 147.736 14.1802 148.536 14.1802Z" fill="white"/>
<path d="M161.513 15.0002L156.432 1.00023H157.582L162.143 13.5802L166.723 1.00023H167.864L162.773 15.0002H161.513Z" fill="white"/>
</svg>
