<svg width="30" height="30" viewBox="0 0 30 30" fill="white" xmlns="http://www.w3.org/2000/svg">
<g id="email-round-solid-icon 2" clip-path="url(#clip0_250_154)">
<path id="Vector" fill-rule="evenodd" clip-rule="evenodd" d="M15 0C17.9667 0 20.8668 0.879735 23.3336 2.52796C25.8003 4.17618 27.7229 6.51886 28.8582 9.25975C29.9935 12.0006 30.2906 15.0166 29.7118 17.9264C29.133 20.8361 27.7044 23.5088 25.6066 25.6066C23.5088 27.7044 20.8361 29.133 17.9264 29.7118C15.0166 30.2906 12.0006 29.9935 9.25975 28.8582C6.51886 27.7229 4.17618 25.8003 2.52796 23.3336C0.879735 20.8668 0 17.9667 0 15C0 11.0218 1.58035 7.20644 4.3934 4.3934C7.20644 1.58035 11.0218 0 15 0ZM7.50244 9.27734L15.1367 15.4956L22.439 9.27734H7.50244ZM7.01416 19.7485L12.4512 14.2944L7.00928 9.86084V19.7437L7.01416 19.7485ZM13.0444 14.7827L7.44141 20.3979H22.5122L17.1558 14.7827L15.3809 16.2866C15.3122 16.3434 15.2258 16.3744 15.1367 16.3744C15.0476 16.3744 14.9613 16.3434 14.8926 16.2866L13.0395 14.7754L13.0444 14.7827ZM17.7417 14.2944L22.9907 19.7974V9.81201L17.7417 14.2847V14.2944Z" />
</g>
<defs>
<clipPath id="clip0_250_154">
<rect width="30" height="30" />
</clipPath>
</defs>
</svg>
