<svg width="30" height="30" viewBox="0 0 30 30" fill="none" xmlns="http://www.w3.org/2000/svg">
<g id="uiw:github" clip-path="url(#clip0_209_3033)">
<path id="Vector" d="M30 15.3754C30 18.7264 29.046 21.7399 27.138 24.4159C25.2315 27.0919 22.767 28.9429 19.746 29.9704C19.395 30.0379 19.137 29.9914 18.975 29.8309C18.8951 29.7531 18.8321 29.6597 18.79 29.5564C18.7479 29.4532 18.7277 29.3423 18.7305 29.2309V25.0054C18.7305 23.7109 18.3915 22.7629 17.715 22.1629C18.3908 22.095 19.0604 21.9747 19.7175 21.8029C20.3085 21.6424 20.9205 21.3829 21.552 21.0229C22.1591 20.6832 22.6962 20.2311 23.1345 19.6909C23.5575 19.1629 23.9025 18.4624 24.1695 17.5879C24.4365 16.7134 24.57 15.7099 24.57 14.5759C24.57 12.9604 24.0555 11.5849 23.028 10.4509C23.508 9.23587 23.457 7.87537 22.8705 6.36637C22.506 6.24637 21.9795 6.32137 21.2895 6.58687C20.6636 6.82198 20.0618 7.11685 19.4925 7.46737L18.75 7.94737C17.5305 7.59968 16.2681 7.42497 15 7.42837C13.7318 7.42546 12.4695 7.60067 11.25 7.94887C10.9787 7.76099 10.7021 7.58091 10.4205 7.40887C10.0755 7.19437 9.531 6.93787 8.7885 6.63787C8.0475 6.33787 7.4865 6.24787 7.1085 6.36787C6.537 7.87537 6.4905 9.23587 6.9735 10.4509C5.9445 11.5849 5.4285 12.9604 5.4285 14.5759C5.4285 15.7099 5.5635 16.7104 5.8305 17.5789C6.0975 18.4459 6.4395 19.1464 6.855 19.6804C7.28585 20.2263 7.82002 20.6819 8.427 21.0214C9.0585 21.3814 9.672 21.6424 10.263 21.8014C10.8555 21.9634 11.523 22.0834 12.2655 22.1629C11.745 22.6429 11.4255 23.3314 11.3085 24.2254C11.0288 24.3609 10.7336 24.4616 10.4295 24.5254C10.063 24.5973 9.68998 24.631 9.3165 24.6259C8.886 24.6259 8.4615 24.4819 8.037 24.1954C7.614 23.9074 7.2525 23.4904 6.9525 22.9444C6.71815 22.5314 6.39483 22.1758 6.006 21.9034C5.622 21.6364 5.2995 21.4759 5.0385 21.4234L4.6485 21.3634C4.3755 21.3634 4.1865 21.3934 4.0815 21.4534C3.9765 21.5134 3.9465 21.5884 3.984 21.6829C4.02812 21.7846 4.08728 21.8792 4.1595 21.9634C4.23443 22.0534 4.32006 22.134 4.4145 22.2034L4.5495 22.3024C4.8375 22.4374 5.1195 22.6909 5.4 23.0644C5.6805 23.4379 5.886 23.7784 6.015 24.0844L6.21 24.5449C6.3795 25.0519 6.666 25.4629 7.071 25.7764C7.4745 26.0914 7.911 26.2909 8.379 26.3764C8.847 26.4634 9.3 26.5114 9.7365 26.5174C10.1715 26.5234 10.5345 26.5009 10.821 26.4469L11.2695 26.3674C11.2695 26.8744 11.2725 27.4684 11.28 28.1494L11.289 29.2294C11.289 29.4694 11.205 29.6704 11.034 29.8294C10.866 29.9914 10.605 30.0379 10.254 29.9704C7.233 28.9429 4.7685 27.0904 2.862 24.4159C0.954 21.7399 0 18.7264 0 15.3754C0 12.5854 0.6705 10.0144 2.0115 7.65787C3.30972 5.3466 5.19262 3.41715 7.4715 2.06287C9.74324 0.69534 12.3485 -0.0183854 15 0.000370946C17.652 -0.018662 20.2578 0.695073 22.53 2.06287C24.8083 3.41736 26.6907 5.34679 27.9885 7.65787C29.3295 10.0129 30 12.5869 30 15.3754Z" fill="white"/>
</g>
<defs>
<clipPath id="clip0_209_3033">
<rect width="30" height="30" fill="white"/>
</clipPath>
</defs>
</svg>
