<svg width="30" height="30" viewBox="0 0 30 30" fill="none" xmlns="http://www.w3.org/2000/svg">
<g id="entypo-social:linkedin-with-circle" clip-path="url(#clip0_250_152)">
<path id="Vector" d="M15.0016 0.599609C7.04856 0.599609 0.601562 7.04661 0.601562 14.9996C0.601562 22.9526 7.04856 29.3996 15.0016 29.3996C22.9546 29.3996 29.4016 22.9526 29.4016 14.9996C29.4016 7.04661 22.9546 0.599609 15.0016 0.599609ZM11.4766 20.9681H8.56056V11.5841H11.4766V20.9681ZM10.0006 10.4321C9.07956 10.4321 8.48406 9.77961 8.48406 8.97261C8.48406 8.14911 9.09756 7.51611 10.0381 7.51611C10.9786 7.51611 11.5546 8.14911 11.5726 8.97261C11.5726 9.77961 10.9786 10.4321 10.0006 10.4321ZM22.1266 20.9681H19.2106V15.7676C19.2106 14.5571 18.7876 13.7351 17.7331 13.7351C16.9276 13.7351 16.4491 14.2916 16.2376 14.8271C16.1596 15.0176 16.1401 15.2876 16.1401 15.5561V20.9666H13.2226V14.5766C13.2226 13.4051 13.1851 12.4256 13.1461 11.5826H15.6796L15.8131 12.8861H15.8716C16.2556 12.2741 17.1961 11.3711 18.7696 11.3711C20.6881 11.3711 22.1266 12.6566 22.1266 15.4196V20.9681Z" fill="white"/>
</g>
<defs>
<clipPath id="clip0_250_152">
<rect width="30" height="30" fill="white"/>
</clipPath>
</defs>
</svg>
