<svg xmlns="http://www.w3.org/2000/svg" width="18" height="19" viewBox="0 0 18 19" fill="none">
  <path d="M7.21129 1.98918C7.7486 0.385404 10.017 0.385404 10.5543 1.98918C10.8944 3.00433 12.0535 3.48443 13.0118 3.0071C14.5258 2.253 16.1298 3.85702 15.3757 5.37099C14.8984 6.3293 15.3785 7.48837 16.3936 7.82847C17.9974 8.36579 17.9974 10.6342 16.3936 11.1715C15.3785 11.5116 14.8984 12.6707 15.3757 13.629C16.1298 15.143 14.5258 16.747 13.0118 15.9929C12.0535 15.5156 10.8944 15.9957 10.5543 17.0108C10.017 18.6146 7.7486 18.6146 7.21129 17.0108C6.87118 15.9957 5.71212 15.5156 4.75381 15.9929C3.23983 16.747 1.63581 15.143 2.38991 13.629C2.86724 12.6707 2.38714 11.5116 1.37199 11.1715C-0.231783 10.6342 -0.231783 8.36579 1.37199 7.82847C2.38714 7.48837 2.86724 6.3293 2.38991 5.37099C1.63581 3.85702 3.23983 2.253 4.75381 3.0071C5.71212 3.48443 6.87118 3.00433 7.21129 1.98918Z" fill="black"/>
</svg>