<svg width="600" height="301" viewBox="0 0 600 301" fill="none" xmlns="http://www.w3.org/2000/svg">
<mask id="path-1-inside-1_69_1474" fill="white">
<path d="M299.5 1.79469e-06C319.264 2.03038e-06 338.834 3.89279 357.094 11.4561C375.353 19.0195 391.944 30.1052 405.92 44.0804C419.895 58.0557 430.981 74.6467 438.544 92.9061C446.107 111.166 450 130.736 450 150.5C450 170.264 446.107 189.834 438.544 208.094C430.981 226.353 419.895 242.944 405.92 256.92C391.944 270.895 375.353 281.981 357.094 289.544C338.834 297.107 319.264 301 299.5 301L299.5 150.5L299.5 1.79469e-06Z"/>
</mask>
<path d="M299.5 1.79469e-06C319.264 2.03038e-06 338.834 3.89279 357.094 11.4561C375.353 19.0195 391.944 30.1052 405.92 44.0804C419.895 58.0557 430.981 74.6467 438.544 92.9061C446.107 111.166 450 130.736 450 150.5C450 170.264 446.107 189.834 438.544 208.094C430.981 226.353 419.895 242.944 405.92 256.92C391.944 270.895 375.353 281.981 357.094 289.544C338.834 297.107 319.264 301 299.5 301L299.5 150.5L299.5 1.79469e-06Z" stroke="#616060" stroke-width="2" mask="url(#path-1-inside-1_69_1474)"/>
<mask id="path-2-inside-2_69_1474" fill="white">
<path d="M449.5 1.79469e-06C469.264 2.03038e-06 488.834 3.89279 507.094 11.4561C525.353 19.0195 541.944 30.1052 555.92 44.0804C569.895 58.0557 580.981 74.6467 588.544 92.9061C596.107 111.166 600 130.736 600 150.5C600 170.264 596.107 189.834 588.544 208.094C580.981 226.353 569.895 242.944 555.92 256.92C541.944 270.895 525.353 281.981 507.094 289.544C488.834 297.107 469.264 301 449.5 301L449.5 150.5L449.5 1.79469e-06Z"/>
</mask>
<path d="M449.5 1.79469e-06C469.264 2.03038e-06 488.834 3.89279 507.094 11.4561C525.353 19.0195 541.944 30.1052 555.92 44.0804C569.895 58.0557 580.981 74.6467 588.544 92.9061C596.107 111.166 600 130.736 600 150.5C600 170.264 596.107 189.834 588.544 208.094C580.981 226.353 569.895 242.944 555.92 256.92C541.944 270.895 525.353 281.981 507.094 289.544C488.834 297.107 469.264 301 449.5 301L449.5 150.5L449.5 1.79469e-06Z" stroke="#616060" stroke-width="2" mask="url(#path-2-inside-2_69_1474)"/>
<circle cx="150.5" cy="150.5" r="150.5" fill="#DB293A"/>
</svg>
