<svg width="290" height="145" viewBox="0 0 290 145" fill="none" xmlns="http://www.w3.org/2000/svg">
<circle cx="217.5" cy="72.5" r="72.5" fill="white"/>
<path d="M145 145C125.639 145 107.071 137.362 93.3812 123.765C79.6911 110.169 72 91.7282 72 72.5C72 53.2718 79.691 34.8311 93.3812 21.2348C107.071 7.63837 125.639 -1.11171e-06 145 -3.17344e-06L145 72.5L145 145Z" fill="#DB293A"/>
<path d="M73 145C53.6392 145 35.0714 137.362 21.3812 123.765C7.69105 110.169 -4.03167e-06 91.7282 -3.18655e-06 72.5C-2.34142e-06 53.2718 7.69104 34.8311 21.3812 21.2348C35.0713 7.63837 53.6392 -1.11171e-06 73 -3.17344e-06L73 72.5L73 145Z" fill="white"/>
</svg>
